<svg height="26" width="27" fill="none" viewBox="0 0 27 26" xmlns="http://www.w3.org/2000/svg">
	<path d="M20.0007 14.2835V10.8335C20.0007 7.24363 17.0905 4.3335 13.5007 4.3335C9.91079 4.3335 7.00065 7.24363 7.00065 10.8335V14.2835C5.74216 14.732 4.83557 15.9213 4.83398 17.3335V19.5002C4.83398 19.5006 4.83398 19.501 4.83398 19.5014C4.83432 20.0994 5.31938 20.5838 5.91732 20.5835H21.084C21.0844 20.5835 21.0848 20.5835 21.0852 20.5835C21.6832 20.5832 22.1677 20.0981 22.1673 19.5002V17.3335C22.1657 15.9213 21.2591 14.732 20.0007 14.2835Z" fill="#0B0A0C" opacity="0.2"/>
	<path d="M9.32031 20.5832C9.80478 22.4478 11.4836 23.8312 13.4995 23.8332C15.5153 23.8312 17.1941 22.4478 17.6786 20.5832H9.32031ZM13.4995 4.33317C13.8694 4.33317 14.2298 4.37126 14.5828 4.43064V3.24984C14.5828 2.6515 14.0978 2.1665 13.4995 2.1665C12.9011 2.1665 12.4161 2.6515 12.4161 3.24984V4.43064C12.7691 4.37126 13.1295 4.33317 13.4995 4.33317Z" fill="#0B0A0C"/>
</svg>