<svg height="26" width="27" fill="none" viewBox="0 0 27 26" xmlns="http://www.w3.org/2000/svg">
	<path d="M13.1087 17.3332C12.2517 17.3332 11.4139 17.079 10.7013 16.6029C9.98864 16.1267 9.43323 15.4499 9.10525 14.6581C8.77727 13.8663 8.69145 12.995 8.85866 12.1544C9.02586 11.3139 9.43857 10.5417 10.0446 9.93571C10.6506 9.32968 11.4228 8.91697 12.2633 8.74977C13.1039 8.58257 13.9752 8.66838 14.767 8.99636C15.5588 9.32434 16.2356 9.87976 16.7118 10.5924C17.1879 11.305 17.4421 12.1428 17.4421 12.9998C17.4407 14.1487 16.9838 15.2501 16.1714 16.0625C15.359 16.8749 14.2576 17.3319 13.1087 17.3332ZM13.1087 10.8332C12.6802 10.8332 12.2613 10.9602 11.905 11.1983C11.5487 11.4364 11.271 11.7748 11.107 12.1707C10.943 12.5666 10.9001 13.0022 10.9837 13.4225C11.0673 13.8428 11.2736 14.2289 11.5767 14.5319C11.8797 14.8349 12.2657 15.0413 12.686 15.1249C13.1063 15.2085 13.542 15.1656 13.9379 15.0016C14.3338 14.8376 14.6722 14.5599 14.9102 14.2036C15.1483 13.8473 15.2754 13.4284 15.2754 12.9998C15.2748 12.4254 15.0464 11.8746 14.6402 11.4684C14.234 11.0622 13.6832 10.8337 13.1087 10.8332Z" fill="#0B0A0C"/>
	<path d="M22.0614 13.7187C21.8858 13.5204 21.7889 13.2647 21.7889 12.9998C21.7889 12.735 21.8858 12.4793 22.0614 12.281L23.4457 10.72C23.5966 10.5498 23.6901 10.3366 23.7131 10.1103C23.736 9.88414 23.6873 9.65643 23.5738 9.45943L21.4071 5.70691C21.293 5.51039 21.1202 5.35455 20.913 5.26128C20.7058 5.16801 20.4746 5.142 20.2518 5.18691L18.2073 5.60533C17.9479 5.65832 17.6781 5.61451 17.4488 5.48216C17.2195 5.34982 17.0466 5.1381 16.9627 4.88698L16.303 2.90757C16.2312 2.69178 16.0933 2.50407 15.9088 2.37106C15.7243 2.23805 15.5027 2.16648 15.2753 2.1665H10.9419C10.7146 2.16655 10.493 2.23808 10.3086 2.37098C10.1241 2.50389 9.98613 2.69142 9.91413 2.90706L9.25397 4.887C9.16947 5.13782 8.99635 5.34919 8.7671 5.48144C8.53784 5.6137 8.2682 5.65776 8.00877 5.60535L5.96483 5.18694C5.74209 5.14249 5.51103 5.1687 5.30392 5.26193C5.09681 5.35515 4.92397 5.51073 4.80956 5.70693L2.64289 9.45945C2.52935 9.65645 2.48062 9.88416 2.5036 10.1104C2.52657 10.3366 2.62008 10.5498 2.7709 10.72L4.15522 12.281C4.33082 12.4793 4.42777 12.735 4.42777 12.9999C4.42777 13.2647 4.33082 13.5204 4.15522 13.7187L2.7709 15.2797C2.62008 15.4499 2.52657 15.6631 2.5036 15.8893C2.48062 16.1155 2.52935 16.3432 2.64289 16.5402L4.80956 20.2928C4.92315 20.4899 5.09597 20.6461 5.30346 20.7394C5.51095 20.8326 5.74255 20.8581 5.96536 20.8122L8.00877 20.3943C8.26837 20.3406 8.53863 20.3842 8.7682 20.5168C8.99777 20.6493 9.17065 20.8616 9.25397 21.1132L9.91413 23.0926C9.98613 23.3083 10.1241 23.4958 10.3086 23.6287C10.493 23.7616 10.7146 23.8331 10.9419 23.8332H15.2753C15.5027 23.8332 15.7244 23.7616 15.9088 23.6286C16.0933 23.4956 16.2312 23.3079 16.303 23.0921L16.9627 21.1127C17.0471 20.8619 17.2201 20.6505 17.4492 20.5182C17.6784 20.3858 17.9479 20.3416 18.2073 20.3938L20.2513 20.8122C20.4741 20.8586 20.7059 20.8333 20.9135 20.74C21.121 20.6467 21.2938 20.4902 21.4071 20.2928L23.5738 16.5402C23.6873 16.3432 23.736 16.1155 23.7131 15.8893C23.6901 15.6631 23.5966 15.4499 23.4457 15.2797L22.0614 13.7187ZM13.1086 17.3332C12.2515 17.3332 11.4137 17.079 10.7011 16.6029C9.9885 16.1267 9.43309 15.4499 9.10511 14.6581C8.77713 13.8663 8.69131 12.995 8.85852 12.1544C9.02572 11.3139 9.43843 10.5417 10.0445 9.93571C10.6505 9.32968 11.4226 8.91697 12.2632 8.74977C13.1038 8.58256 13.9751 8.66838 14.7669 8.99636C15.5587 9.32434 16.2355 9.87975 16.7116 10.5924C17.1878 11.305 17.4419 12.1428 17.4419 12.9998C17.4406 14.1487 16.9836 15.2501 16.1713 16.0625C15.3589 16.8749 14.2575 17.3319 13.1086 17.3332Z" fill="#0B0A0C" opacity="0.2"/>
</svg>